<svg width="608" height="482" xmlns="http://www.w3.org/2000/svg" xmlns:xlink="http://www.w3.org/1999/xlink" xml:space="preserve" overflow="hidden"><defs><clipPath id="clip0"><rect x="1896" y="998" width="608" height="482"/></clipPath><clipPath id="clip1"><rect x="2033" y="1050" width="331" height="331"/></clipPath><clipPath id="clip2"><rect x="2033" y="1050" width="331" height="331"/></clipPath><clipPath id="clip3"><rect x="2033" y="1050" width="331" height="331"/></clipPath></defs><g clip-path="url(#clip0)" transform="translate(-1896 -998)"><path d="M1896 1477 2015.75 998 2504 998 2384.25 1477Z" fill="#F2E6FF" fill-rule="evenodd"/><g clip-path="url(#clip1)"><g clip-path="url(#clip2)"><g clip-path="url(#clip3)"><path d="M2144 1063.75C2128.83 1063.8 2116.55 1076.08 2116.5 1091.25L2116.5 1249.38C2116.54 1260.75 2125.75 1269.96 2137.12 1270L2260.88 1270C2272.25 1269.96 2281.46 1260.75 2281.5 1249.38L2281.5 1091.25C2281.45 1076.08 2269.17 1063.8 2254 1063.75ZM2274.62 1098.13 2274.62 1177.19 2123.38 1177.19 2123.38 1098.13 2185.25 1098.13 2185.25 1094.69C2185.25 1092.79 2186.79 1091.25 2188.69 1091.25L2209.31 1091.25C2211.21 1091.25 2212.75 1092.79 2212.75 1094.69L2212.75 1098.13ZM2260.88 1263.13 2137.12 1263.13C2129.54 1263.11 2123.39 1256.96 2123.38 1249.38L2123.38 1184.06 2274.62 1184.06 2274.62 1249.38C2274.61 1256.96 2268.46 1263.11 2260.88 1263.13ZM2274.62 1091.25 2219.04 1091.25C2217.58 1087.13 2213.68 1084.38 2209.31 1084.38L2188.69 1084.38C2184.32 1084.38 2180.43 1087.13 2178.96 1091.25L2123.38 1091.25C2123.39 1079.87 2132.62 1070.64 2144 1070.63L2254 1070.63C2265.39 1070.64 2274.61 1079.86 2274.62 1091.25Z" fill="#460073"/><path d="M2147.44 1225.31C2139.84 1225.31 2133.69 1231.47 2133.69 1239.06 2133.69 1246.66 2139.84 1252.81 2147.44 1252.81 2155.03 1252.81 2161.19 1246.66 2161.19 1239.06 2161.27 1231.55 2155.24 1225.39 2147.73 1225.31 2147.63 1225.31 2147.53 1225.31 2147.44 1225.31ZM2147.44 1245.94C2143.64 1245.94 2140.56 1242.86 2140.56 1239.06 2140.56 1235.27 2143.64 1232.19 2147.44 1232.19 2151.23 1232.19 2154.31 1235.27 2154.31 1239.06 2154.4 1242.78 2151.46 1245.85 2147.74 1245.94 2147.64 1245.94 2147.54 1245.94 2147.44 1245.94Z" fill="#460073"/><path d="M2250.56 1225.31C2242.97 1225.31 2236.81 1231.47 2236.81 1239.06 2236.81 1246.66 2242.97 1252.81 2250.56 1252.81 2258.16 1252.81 2264.31 1246.66 2264.31 1239.06 2264.39 1231.55 2258.37 1225.39 2250.85 1225.31 2250.76 1225.31 2250.66 1225.31 2250.56 1225.31ZM2250.56 1245.94C2246.77 1245.94 2243.69 1242.86 2243.69 1239.06 2243.69 1235.27 2246.77 1232.19 2250.56 1232.19 2254.36 1232.19 2257.44 1235.27 2257.44 1239.06 2257.52 1242.78 2254.58 1245.85 2250.87 1245.94 2250.77 1245.94 2250.66 1245.94 2250.56 1245.94Z" fill="#460073"/><path d="M2249.56 1280.31 2254.22 1290.63 2143.78 1290.63 2148.44 1280.31 2140.91 1280.31 2100.53 1369.69 2108.07 1369.69 2115.84 1352.5 2282.16 1352.5 2289.93 1369.69 2297.47 1369.69 2257.09 1280.31ZM2279.06 1345.63 2118.94 1345.63 2128.26 1325 2269.74 1325ZM2266.64 1318.13 2131.36 1318.13 2140.68 1297.5 2257.33 1297.5Z" fill="#460073"/></g></g></g><path d="M1984 1380 2066.5 1050 2423 1050 2340.5 1380Z" stroke="#460073" stroke-width="10.3125" stroke-miterlimit="8" fill="none" fill-rule="evenodd"/><text font-family="Arial,Arial_MSFontService,sans-serif" font-style="italic" font-weight="700" font-size="55" transform="matrix(1 0 0 1 1983.98 1433)">SoT</text><text font-family="Arial,Arial_MSFontService,sans-serif" font-style="italic" font-weight="700" font-size="55" transform="matrix(1 0 0 1 2103.72 1433)">Railways</text></g></svg>